<?xml version="1.0" encoding="UTF-8" standalone="no" ?>
<!DOCTYPE svg PUBLIC "-//W3C//DTD SVG 1.1//EN" "http://www.w3.org/Graphics/SVG/1.1/DTD/svg11.dtd">
<svg xmlns="http://www.w3.org/2000/svg" xmlns:xlink="http://www.w3.org/1999/xlink" version="1.1" width="350" height="350" viewBox="0 0 350 350" xml:space="preserve">
<desc>Created with Fabric.js 1.7.22</desc>
<defs>
</defs>
<g id="icon" style="stroke: none; stroke-width: 1; stroke-dasharray: none; stroke-linecap: butt; stroke-linejoin: miter; stroke-miterlimit: 10; fill: none; fill-rule: nonzero; opacity: 1;" transform="translate(2.605555555555526 2.605555555555526) scale(3.79 3.79)" >
	<path d="M 78.91 80.91 H 11.089 c -1.104 0 -2 -0.896 -2 -2 c 0 -20.396 -2.98 -27.148 -8.48 -32.474 C 0.22 46.061 0 45.542 0 45 s 0.22 -1.06 0.609 -1.437 c 5.5 -5.325 8.48 -12.078 8.48 -32.474 c 0 -1.104 0.896 -2 2 -2 H 78.91 c 1.104 0 2 0.896 2 2 c 0 20.395 2.98 27.148 8.481 32.474 C 89.78 43.94 90 44.458 90 45 s -0.22 1.06 -0.608 1.437 c -5.501 5.326 -8.481 12.079 -8.481 32.474 C 80.91 80.015 80.015 80.91 78.91 80.91 z M 13.089 78.91 h 0.01 H 13.089 z M 13.08 76.91 h 63.84 c 0.189 -18.67 3.077 -26.225 8.287 -31.91 c -5.21 -5.686 -8.098 -13.241 -8.287 -31.911 H 13.08 C 12.89 31.76 10.003 39.315 4.793 45 C 10.003 50.685 12.89 58.24 13.08 76.91 z" style="stroke: none; stroke-width: 1; stroke-dasharray: none; stroke-linecap: butt; stroke-linejoin: miter; stroke-miterlimit: 10; fill: rgb(124,61,172); fill-rule: nonzero; opacity: 1;" transform=" matrix(1 0 0 1 0 0) " stroke-linecap="round" />
	<path d="M 47.602 47 H 33.841 c -1.104 0 -2 -0.896 -2 -2 V 27.885 c 0 -1.104 0.896 -2 2 -2 h 13.761 c 5.821 0 10.558 4.736 10.558 10.558 S 53.423 47 47.602 47 z M 35.841 43 h 11.761 c 3.616 0 6.558 -2.942 6.558 -6.558 s -2.941 -6.558 -6.558 -6.558 H 35.841 V 43 z" style="stroke: none; stroke-width: 1; stroke-dasharray: none; stroke-linecap: butt; stroke-linejoin: miter; stroke-miterlimit: 10; fill: rgb(124,61,172); fill-rule: nonzero; opacity: 1;" transform=" matrix(1 0 0 1 0 0) " stroke-linecap="round" />
	<path d="M 47.602 64.115 H 33.841 c -1.104 0 -2 -0.896 -2 -2 V 45 c 0 -1.104 0.896 -2 2 -2 h 13.761 c 5.821 0 10.558 4.736 10.558 10.558 S 53.423 64.115 47.602 64.115 z M 35.841 60.115 h 11.761 c 3.616 0 6.558 -2.941 6.558 -6.558 S 51.218 47 47.602 47 H 35.841 V 60.115 z" style="stroke: none; stroke-width: 1; stroke-dasharray: none; stroke-linecap: butt; stroke-linejoin: miter; stroke-miterlimit: 10; fill: rgb(124,61,172); fill-rule: nonzero; opacity: 1;" transform=" matrix(1 0 0 1 0 0) " stroke-linecap="round" />
</g>
</svg>